<svg width="265" height="392" viewBox="0 0 265 392" fill="none" xmlns="http://www.w3.org/2000/svg">
<mask id="path-1-inside-1_2541_45700" fill="white">
<path d="M224.543 0C246.634 0 264.543 17.9086 264.543 40V352C264.543 374.091 246.634 392 224.543 392H40C17.9086 392 0 374.091 0 352V40C2.06163e-06 17.9086 17.9086 0 40 0H224.543ZM205.619 19C200.163 19 195.181 29.7309 191.354 47.415C174.223 45.4082 154.19 44.251 132.77 44.251C111.349 44.251 89.6391 45.5026 72.0566 47.6748C68.2188 29.8373 63.2137 19.0001 57.7344 19C51.7233 19 46.2904 31.9742 42.3369 52.9521C27.5172 56.7062 18.6855 61.4167 18.6855 66.5283C18.686 71.203 26.061 75.5354 38.6377 79.1123C36.9037 95.8285 35.9092 115.036 35.9092 135.494C35.9092 155.953 36.8229 173.649 38.4297 189.893C25.9682 193.458 18.6856 197.779 18.6855 202.418C18.6855 207.482 27.355 212.157 41.9434 215.899C45.9199 238.129 51.5151 252 57.7227 252C63.4101 252 68.5886 240.372 72.4727 221.342C89.9742 223.479 110.621 224.706 132.77 224.706C154.918 224.706 173.899 223.573 190.927 221.59C194.799 240.478 199.966 252 205.619 252C211.769 252 217.329 238.364 221.294 216.466C237.258 212.629 246.842 207.742 246.842 202.418C246.842 197.519 238.715 192.986 224.971 189.303H224.959C226.531 173.2 227.433 154.902 227.433 135.494C227.433 116.086 226.461 96.265 224.773 79.6904C238.633 76.0073 246.841 71.4509 246.842 66.5283C246.842 61.1569 237.108 56.2333 220.901 52.3848C216.959 31.7495 211.572 19.0001 205.619 19Z"/>
</mask>
<path d="M224.543 0C246.634 0 264.543 17.9086 264.543 40V352C264.543 374.091 246.634 392 224.543 392H40C17.9086 392 0 374.091 0 352V40C2.06163e-06 17.9086 17.9086 0 40 0H224.543ZM205.619 19C200.163 19 195.181 29.7309 191.354 47.415C174.223 45.4082 154.19 44.251 132.77 44.251C111.349 44.251 89.6391 45.5026 72.0566 47.6748C68.2188 29.8373 63.2137 19.0001 57.7344 19C51.7233 19 46.2904 31.9742 42.3369 52.9521C27.5172 56.7062 18.6855 61.4167 18.6855 66.5283C18.686 71.203 26.061 75.5354 38.6377 79.1123C36.9037 95.8285 35.9092 115.036 35.9092 135.494C35.9092 155.953 36.8229 173.649 38.4297 189.893C25.9682 193.458 18.6856 197.779 18.6855 202.418C18.6855 207.482 27.355 212.157 41.9434 215.899C45.9199 238.129 51.5151 252 57.7227 252C63.4101 252 68.5886 240.372 72.4727 221.342C89.9742 223.479 110.621 224.706 132.77 224.706C154.918 224.706 173.899 223.573 190.927 221.59C194.799 240.478 199.966 252 205.619 252C211.769 252 217.329 238.364 221.294 216.466C237.258 212.629 246.842 207.742 246.842 202.418C246.842 197.519 238.715 192.986 224.971 189.303H224.959C226.531 173.2 227.433 154.902 227.433 135.494C227.433 116.086 226.461 96.265 224.773 79.6904C238.633 76.0073 246.841 71.4509 246.842 66.5283C246.842 61.1569 237.108 56.2333 220.901 52.3848C216.959 31.7495 211.572 19.0001 205.619 19Z" fill="#EE9092"/>
<path d="M40 392V393.5V392ZM0 40H-1.5H0ZM205.619 19L205.619 17.5H205.619V19ZM191.354 47.415L191.18 48.9049L192.533 49.0633L192.821 47.7323L191.354 47.415ZM132.77 44.251V42.751V44.251ZM72.0566 47.6748L70.5902 47.9903L70.8788 49.3317L72.2406 49.1635L72.0566 47.6748ZM57.7344 19L57.7344 17.5H57.7344V19ZM42.3369 52.9521L42.7053 54.4062L43.6336 54.1711L43.811 53.2299L42.3369 52.9521ZM18.6855 66.5283H17.1855V66.5285L18.6855 66.5283ZM38.6377 79.1123L40.1297 79.2671L40.2597 78.0141L39.048 77.6695L38.6377 79.1123ZM35.9092 135.494H34.4092H35.9092ZM38.4297 189.893L38.8423 191.335L40.0456 190.99L39.9224 189.745L38.4297 189.893ZM18.6855 202.418H17.1855H18.6855ZM41.9434 215.899L43.4199 215.635L43.2501 214.686L42.3161 214.446L41.9434 215.899ZM57.7227 252L57.7226 253.5H57.7227V252ZM72.4727 221.342L72.6544 219.853L71.2799 219.685L71.003 221.042L72.4727 221.342ZM132.77 224.706V226.206V224.706ZM190.927 221.59L192.396 221.289L192.12 219.941L190.753 220.1L190.927 221.59ZM205.619 252V253.5H205.619L205.619 252ZM221.294 216.466L220.943 215.007L219.992 215.236L219.818 216.199L221.294 216.466ZM246.842 202.418H248.342H246.842ZM224.971 189.303L225.359 187.854L225.168 187.803H224.971V189.303ZM224.959 189.303L223.466 189.157L223.305 190.803H224.959V189.303ZM227.433 135.494H228.933H227.433ZM224.773 79.6904L224.388 78.2407L223.152 78.5694L223.281 79.8424L224.773 79.6904ZM246.842 66.5283L248.342 66.5285V66.5283H246.842ZM220.901 52.3848L219.428 52.6662L219.61 53.6199L220.555 53.8442L220.901 52.3848ZM224.543 0V1.5C245.806 1.5 263.043 18.737 263.043 40H264.543H266.043C266.043 17.0802 247.463 -1.5 224.543 -1.5V0ZM264.543 40H263.043V352H264.543H266.043V40H264.543ZM264.543 352H263.043C263.043 373.263 245.806 390.5 224.543 390.5V392V393.5C247.463 393.5 266.043 374.92 266.043 352H264.543ZM224.543 392V390.5H40V392V393.5H224.543V392ZM40 392V390.5C18.737 390.5 1.5 373.263 1.5 352H0H-1.5C-1.5 374.92 17.0802 393.5 40 393.5V392ZM0 352H1.5V40H0H-1.5V352H0ZM0 40H1.5C1.5 18.737 18.737 1.5 40 1.5V0V-1.5C17.0802 -1.5 -1.5 17.0802 -1.5 40H0ZM40 0V1.5H224.543V0V-1.5H40V0ZM205.619 19V17.5C203.726 17.5 202.034 18.4375 200.571 19.8875C199.112 21.3333 197.77 23.3904 196.529 25.9141C194.045 30.9678 191.812 38.2087 189.888 47.0978L191.354 47.415L192.821 47.7323C194.724 38.9372 196.895 31.9706 199.222 27.2378C200.387 24.8683 201.553 23.1374 202.682 22.0185C203.807 20.9039 204.784 20.5 205.619 20.5V19ZM191.354 47.415L191.529 45.9252C174.333 43.9108 154.241 42.751 132.77 42.751V44.251V45.751C154.138 45.751 174.113 46.9055 191.18 48.9049L191.354 47.415ZM132.77 44.251V42.751C111.298 42.751 89.5254 44.0053 71.8727 46.1861L72.0566 47.6748L72.2406 49.1635C89.7529 47 111.401 45.751 132.77 45.751V44.251ZM72.0566 47.6748L73.5231 47.3593C71.5941 38.3937 69.3527 31.0883 66.8585 25.9893C65.613 23.443 64.2668 21.3678 62.8027 19.9094C61.3348 18.4471 59.6361 17.5 57.7344 17.5L57.7344 19L57.7343 20.5C58.5723 20.5 59.554 20.9077 60.6855 22.0348C61.8209 23.1658 62.9932 24.9148 64.1636 27.3075C66.5013 32.0865 68.6814 39.1184 70.5902 47.9903L72.0566 47.6748ZM57.7344 19V17.5C55.6497 17.5 53.8121 18.6307 52.2432 20.341C50.6718 22.054 49.227 24.4956 47.893 27.5008C45.2205 33.5215 42.8481 42.1402 40.8629 52.6744L42.3369 52.9521L43.811 53.2299C45.7792 42.7862 48.1 34.4289 50.635 28.7179C51.9048 25.8573 53.1924 23.7442 54.4539 22.369C55.7178 20.9911 56.8135 20.5 57.7344 20.5V19ZM42.3369 52.9521L41.9686 51.4981C34.5066 53.3883 28.4467 55.5435 24.218 57.924C22.104 59.1141 20.3778 60.399 19.1649 61.7945C17.9435 63.1998 17.1855 64.7884 17.1855 66.5283H18.6855H20.1855C20.1855 65.7124 20.5315 64.7953 21.4292 63.7625C22.3354 62.7198 23.7433 61.634 25.6897 60.5382C29.5818 58.3472 35.3476 56.27 42.7053 54.4062L42.3369 52.9521ZM18.6855 66.5283L17.1855 66.5285C17.1859 69.7012 19.6589 72.3426 23.156 74.5074C26.7435 76.7282 31.884 78.751 38.2274 80.5551L38.6377 79.1123L39.048 77.6695C32.8147 75.8967 27.9793 73.9649 24.735 71.9566C21.4003 69.8923 20.1857 68.0302 20.1855 66.5282L18.6855 66.5283ZM38.6377 79.1123L37.1457 78.9575C35.4059 95.73 34.4092 114.989 34.4092 135.494H35.9092H37.4092C37.4092 115.082 38.4016 95.9271 40.1297 79.2671L38.6377 79.1123ZM35.9092 135.494H34.4092C34.4092 155.998 35.325 173.744 36.937 190.04L38.4297 189.893L39.9224 189.745C38.3208 173.553 37.4092 155.907 37.4092 135.494H35.9092ZM38.4297 189.893L38.0171 188.45C31.7305 190.249 26.6414 192.266 23.0911 194.479C19.6293 196.637 17.1856 199.267 17.1855 202.418H18.6855H20.1855C20.1856 200.929 21.3832 199.079 24.678 197.025C27.8844 195.027 32.6674 193.101 38.8423 191.335L38.4297 189.893ZM18.6855 202.418H17.1855C17.1855 205.846 20.0686 208.665 24.1023 210.958C28.2619 213.324 34.224 215.468 41.5706 217.352L41.9434 215.899L42.3161 214.446C35.0744 212.589 29.4075 210.524 25.5853 208.351C21.6372 206.105 20.1855 204.055 20.1855 202.418H18.6855ZM41.9434 215.899L40.4668 216.164C42.4631 227.323 44.8801 236.476 47.6172 242.876C48.9833 246.069 50.4643 248.662 52.0747 250.48C53.6795 252.291 55.5683 253.5 57.7226 253.5L57.7227 252L57.7227 250.5C56.7732 250.5 55.6348 249.975 54.3203 248.491C53.0115 247.013 51.6813 244.749 50.3755 241.696C47.769 235.602 45.4002 226.705 43.4199 215.635L41.9434 215.899ZM57.7227 252V253.5C59.6949 253.5 61.4485 252.485 62.9572 250.93C64.4641 249.377 65.8498 247.165 67.1308 244.447C69.6965 239.002 71.9908 231.203 73.9424 221.642L72.4727 221.342L71.003 221.042C69.0704 230.51 66.8335 238.04 64.417 243.168C63.207 245.735 61.9889 247.62 60.8039 248.841C59.6206 250.061 58.5941 250.5 57.7227 250.5V252ZM72.4727 221.342L72.2909 222.831C89.8606 224.976 110.569 226.206 132.77 226.206V224.706V223.206C110.673 223.206 90.0879 221.981 72.6544 219.853L72.4727 221.342ZM132.77 224.706V226.206C154.97 226.206 174.009 225.07 191.1 223.08L190.927 221.59L190.753 220.1C173.789 222.076 154.866 223.206 132.77 223.206V224.706ZM190.927 221.59L189.457 221.891C191.403 231.382 193.692 239.12 196.25 244.52C197.527 247.216 198.908 249.41 200.409 250.951C201.912 252.494 203.658 253.5 205.619 253.5V252V250.5C204.754 250.5 203.734 250.066 202.558 248.858C201.379 247.648 200.166 245.781 198.961 243.236C196.554 238.153 194.323 230.686 192.396 221.289L190.927 221.59ZM205.619 252L205.619 253.5C207.754 253.5 209.629 252.311 211.224 250.527C212.823 248.736 214.295 246.184 215.653 243.04C218.373 236.74 220.779 227.728 222.77 216.733L221.294 216.466L219.818 216.199C217.844 227.103 215.487 235.857 212.899 241.85C211.602 244.852 210.283 247.077 208.987 248.528C207.685 249.984 206.559 250.5 205.619 250.5L205.619 252ZM221.294 216.466L221.644 217.924C229.677 215.994 236.208 213.777 240.766 211.32C243.044 210.093 244.902 208.767 246.206 207.327C247.519 205.878 248.342 204.231 248.342 202.418H246.842H245.342C245.342 203.267 244.967 204.227 243.983 205.312C242.992 206.406 241.457 207.54 239.343 208.679C235.118 210.957 228.875 213.101 220.943 215.007L221.294 216.466ZM246.842 202.418H248.342C248.342 199.097 245.629 196.352 241.821 194.112C237.902 191.806 232.284 189.71 225.359 187.854L224.971 189.303L224.582 190.752C231.401 192.579 236.72 194.591 240.3 196.697C243.991 198.869 245.342 200.84 245.342 202.418H246.842ZM224.971 189.303V187.803H224.959V189.303V190.803H224.971V189.303ZM224.959 189.303L226.452 189.448C228.029 173.294 228.933 154.947 228.933 135.494H227.433H225.933C225.933 154.857 225.033 173.107 223.466 189.157L224.959 189.303ZM227.433 135.494H228.933C228.933 116.041 227.959 96.1689 226.266 79.5385L224.773 79.6904L223.281 79.8424C224.963 96.3611 225.933 116.131 225.933 135.494H227.433ZM224.773 79.6904L225.159 81.1401C232.142 79.2843 237.808 77.1829 241.763 74.8688C245.603 72.6212 248.341 69.8651 248.342 66.5285L246.842 66.5283L245.342 66.5282C245.342 68.1141 243.976 70.0975 240.247 72.2796C236.632 74.3951 231.265 76.4134 224.388 78.2407L224.773 79.6904ZM246.842 66.5283H248.342C248.342 64.6997 247.507 63.0404 246.176 61.5823C244.852 60.1324 242.968 58.7979 240.656 57.5626C236.031 55.0904 229.402 52.8616 221.248 50.9254L220.901 52.3848L220.555 53.8442C228.608 55.7564 234.949 57.9137 239.242 60.2084C241.39 61.3564 242.952 62.5005 243.96 63.6048C244.96 64.7008 245.342 65.6713 245.342 66.5283H246.842ZM220.901 52.3848L222.375 52.1033C220.395 41.7403 218.037 33.263 215.383 27.3409C214.059 24.3848 212.625 21.9821 211.065 20.296C209.508 18.6118 207.685 17.5 205.619 17.5L205.619 19L205.619 20.5C206.53 20.5 207.613 20.9819 208.863 22.3331C210.111 23.6824 211.386 25.7568 212.646 28.5675C215.16 34.179 217.466 42.3939 219.428 52.6662L220.901 52.3848Z" fill="black" mask="url(#path-1-inside-1_2541_45700)"/>
</svg>
