<svg width="265" height="392" viewBox="0 0 265 392" fill="none" xmlns="http://www.w3.org/2000/svg">
<mask id="path-1-inside-1_2541_45703" fill="white">
<path d="M224.543 0C246.634 1.57474e-05 264.543 17.9086 264.543 40V352C264.543 374.091 246.634 392 224.543 392H40C17.9086 392 0 374.091 0 352V40C2.31965e-06 17.9086 17.9086 0 40 0H224.543ZM159.746 20.5977C157.095 19.0399 152.88 20.5747 147.542 24.6465C139.923 30.4766 129.537 30.4766 121.918 24.6465C116.58 20.5748 112.365 19.0399 109.714 20.5977C105.071 23.324 106.078 35.0791 111.485 52.1924C113.465 58.4711 112.493 65.3521 108.822 70.793C108.776 70.852 108.741 70.9117 108.694 70.9707C105.082 76.3405 99.2812 79.7512 92.9131 80.2588C92.8436 80.2588 92.7619 80.2587 92.6924 80.2705C86.2315 80.7897 79.8977 78.2054 75.5557 73.3193C63.7104 59.9944 54.2388 53.2317 49.5957 55.958C46.9444 57.5161 46.1453 62.0013 46.9326 68.752C48.0672 78.3943 42.8804 87.553 34.127 91.3652C27.9903 94.0325 24.5861 96.9945 24.5859 100.122C24.5859 105.587 35.0648 110.58 52.3174 114.368C58.6509 115.761 64.0005 120.057 66.791 126.017C66.8258 126.076 66.8491 126.147 66.8838 126.206C69.6393 132.083 69.6393 138.905 66.8838 144.782C66.8491 144.841 66.8258 144.913 66.791 144.972C64.0005 150.932 58.6393 155.227 52.3174 156.62C35.0648 160.409 24.5859 165.402 24.5859 170.866C24.5862 173.982 28.0019 176.944 34.127 179.623C42.8804 183.435 48.0672 192.594 46.9326 202.236C46.1337 208.975 46.9444 213.472 49.5957 215.03C54.2388 217.757 63.7105 211.006 75.5557 197.669C79.8977 192.771 86.243 190.199 92.6924 190.718C92.7619 190.718 92.8436 190.729 92.9131 190.741C99.2812 191.249 105.07 194.66 108.694 200.029C108.741 200.088 108.776 200.148 108.822 200.207C112.493 205.648 113.465 212.529 111.485 218.808C106.078 235.921 105.071 247.676 109.714 250.402C112.365 251.96 116.58 250.425 121.918 246.354C129.537 240.523 139.923 240.523 147.542 246.354C152.88 250.425 157.095 251.96 159.746 250.402C164.389 247.676 163.382 235.921 157.975 218.808C155.995 212.529 156.967 205.648 160.638 200.207C160.684 200.148 160.718 200.088 160.765 200.029C164.377 194.659 170.179 191.249 176.547 190.741C176.616 190.741 176.698 190.73 176.768 190.718C183.228 190.199 189.562 192.783 193.904 197.669C205.749 210.994 215.221 217.757 219.864 215.03C222.516 213.472 223.315 208.987 222.527 202.236C221.393 192.594 226.58 183.435 235.333 179.623C241.47 176.944 244.874 173.982 244.874 170.866C244.874 165.402 234.395 160.409 217.143 156.62C210.809 155.227 205.459 150.932 202.669 144.972C202.634 144.913 202.611 144.841 202.576 144.782C199.821 138.905 199.821 132.083 202.576 126.206C202.611 126.147 202.634 126.076 202.669 126.017C205.459 120.057 210.821 115.761 217.143 114.368C234.395 110.58 244.874 105.587 244.874 100.122C244.874 97.0063 241.458 94.0443 235.333 91.3652C226.58 87.5531 221.393 78.3943 222.527 68.752C223.326 62.0131 222.516 57.5161 219.864 55.958C215.221 53.2317 205.749 59.9827 193.904 73.3193C189.562 78.2172 183.217 80.7897 176.768 80.2705C176.698 80.2705 176.616 80.2588 176.547 80.2588C170.179 79.7512 164.389 76.3407 160.765 70.9707C160.718 70.9117 160.684 70.852 160.638 70.793C156.967 65.3521 155.995 58.4711 157.975 52.1924C163.382 35.0792 164.389 23.3358 159.746 20.5977Z"/>
</mask>
<path d="M224.543 0C246.634 1.57474e-05 264.543 17.9086 264.543 40V352C264.543 374.091 246.634 392 224.543 392H40C17.9086 392 0 374.091 0 352V40C2.31965e-06 17.9086 17.9086 0 40 0H224.543ZM159.746 20.5977C157.095 19.0399 152.88 20.5747 147.542 24.6465C139.923 30.4766 129.537 30.4766 121.918 24.6465C116.58 20.5748 112.365 19.0399 109.714 20.5977C105.071 23.324 106.078 35.0791 111.485 52.1924C113.465 58.4711 112.493 65.3521 108.822 70.793C108.776 70.852 108.741 70.9117 108.694 70.9707C105.082 76.3405 99.2812 79.7512 92.9131 80.2588C92.8436 80.2588 92.7619 80.2587 92.6924 80.2705C86.2315 80.7897 79.8977 78.2054 75.5557 73.3193C63.7104 59.9944 54.2388 53.2317 49.5957 55.958C46.9444 57.5161 46.1453 62.0013 46.9326 68.752C48.0672 78.3943 42.8804 87.553 34.127 91.3652C27.9903 94.0325 24.5861 96.9945 24.5859 100.122C24.5859 105.587 35.0648 110.58 52.3174 114.368C58.6509 115.761 64.0005 120.057 66.791 126.017C66.8258 126.076 66.8491 126.147 66.8838 126.206C69.6393 132.083 69.6393 138.905 66.8838 144.782C66.8491 144.841 66.8258 144.913 66.791 144.972C64.0005 150.932 58.6393 155.227 52.3174 156.62C35.0648 160.409 24.5859 165.402 24.5859 170.866C24.5862 173.982 28.0019 176.944 34.127 179.623C42.8804 183.435 48.0672 192.594 46.9326 202.236C46.1337 208.975 46.9444 213.472 49.5957 215.03C54.2388 217.757 63.7105 211.006 75.5557 197.669C79.8977 192.771 86.243 190.199 92.6924 190.718C92.7619 190.718 92.8436 190.729 92.9131 190.741C99.2812 191.249 105.07 194.66 108.694 200.029C108.741 200.088 108.776 200.148 108.822 200.207C112.493 205.648 113.465 212.529 111.485 218.808C106.078 235.921 105.071 247.676 109.714 250.402C112.365 251.96 116.58 250.425 121.918 246.354C129.537 240.523 139.923 240.523 147.542 246.354C152.88 250.425 157.095 251.96 159.746 250.402C164.389 247.676 163.382 235.921 157.975 218.808C155.995 212.529 156.967 205.648 160.638 200.207C160.684 200.148 160.718 200.088 160.765 200.029C164.377 194.659 170.179 191.249 176.547 190.741C176.616 190.741 176.698 190.73 176.768 190.718C183.228 190.199 189.562 192.783 193.904 197.669C205.749 210.994 215.221 217.757 219.864 215.03C222.516 213.472 223.315 208.987 222.527 202.236C221.393 192.594 226.58 183.435 235.333 179.623C241.47 176.944 244.874 173.982 244.874 170.866C244.874 165.402 234.395 160.409 217.143 156.62C210.809 155.227 205.459 150.932 202.669 144.972C202.634 144.913 202.611 144.841 202.576 144.782C199.821 138.905 199.821 132.083 202.576 126.206C202.611 126.147 202.634 126.076 202.669 126.017C205.459 120.057 210.821 115.761 217.143 114.368C234.395 110.58 244.874 105.587 244.874 100.122C244.874 97.0063 241.458 94.0443 235.333 91.3652C226.58 87.5531 221.393 78.3943 222.527 68.752C223.326 62.0131 222.516 57.5161 219.864 55.958C215.221 53.2317 205.749 59.9827 193.904 73.3193C189.562 78.2172 183.217 80.7897 176.768 80.2705C176.698 80.2705 176.616 80.2588 176.547 80.2588C170.179 79.7512 164.389 76.3407 160.765 70.9707C160.718 70.9117 160.684 70.852 160.638 70.793C156.967 65.3521 155.995 58.4711 157.975 52.1924C163.382 35.0792 164.389 23.3358 159.746 20.5977Z" fill="#AAABF0"/>
<path d="M224.543 0V-1.5V0ZM264.543 352H266.043H264.543ZM224.543 392V393.5V392ZM0 40H-1.5H0ZM159.746 20.5977L160.508 19.3056L160.506 19.3043L159.746 20.5977ZM147.542 24.6465L146.632 23.4539L146.63 23.4552L147.542 24.6465ZM121.918 24.6465L122.83 23.4552L122.828 23.4539L121.918 24.6465ZM109.714 20.5977L110.473 21.8912L110.474 21.891L109.714 20.5977ZM111.485 52.1924L112.916 51.7413L112.916 51.7405L111.485 52.1924ZM108.822 70.793L110.002 71.7191L110.036 71.6766L110.066 71.6318L108.822 70.793ZM108.694 70.9707L107.514 70.0446L107.48 70.0878L107.45 70.1334L108.694 70.9707ZM92.9131 80.2588V81.7588H92.9728L93.0323 81.754L92.9131 80.2588ZM92.6924 80.2705L92.8125 81.7657L92.8784 81.7604L92.9436 81.7493L92.6924 80.2705ZM75.5557 73.3193L76.6769 72.3229L76.6767 72.3227L75.5557 73.3193ZM49.5957 55.958L48.8362 54.6645L48.8357 54.6648L49.5957 55.958ZM46.9326 68.752L45.4427 68.9257L45.4429 68.9272L46.9326 68.752ZM34.127 91.3652L34.7249 92.7409L34.7259 92.7405L34.127 91.3652ZM24.5859 100.122L23.0859 100.122V100.122H24.5859ZM52.3174 114.368L52.6395 112.903L52.6391 112.903L52.3174 114.368ZM66.791 126.017L65.4325 126.653L65.4625 126.717L65.4983 126.777L66.791 126.017ZM66.8838 126.206L68.2419 125.569L68.2121 125.506L68.1765 125.445L66.8838 126.206ZM66.8838 144.782L68.1764 145.543L68.2121 145.483L68.2419 145.419L66.8838 144.782ZM66.791 144.972L65.4983 144.211L65.4625 144.272L65.4325 144.336L66.791 144.972ZM52.3174 156.62L52.6391 158.085L52.6401 158.085L52.3174 156.62ZM24.5859 170.866H23.0859V170.866L24.5859 170.866ZM34.127 179.623L33.5258 180.997L33.528 180.998L34.127 179.623ZM46.9326 202.236L48.4222 202.413L48.4223 202.412L46.9326 202.236ZM49.5957 215.03L48.8357 216.324L48.8362 216.324L49.5957 215.03ZM75.5557 197.669L76.6772 198.665L76.6781 198.664L75.5557 197.669ZM92.6924 190.718L92.572 192.213L92.6321 192.218H92.6924V190.718ZM92.9131 190.741L92.6617 192.22L92.7274 192.231L92.7939 192.236L92.9131 190.741ZM108.694 200.029L107.451 200.868L107.481 200.913L107.514 200.955L108.694 200.029ZM108.822 200.207L110.066 199.368L110.036 199.323L110.002 199.281L108.822 200.207ZM111.485 218.808L112.916 219.26L112.916 219.259L111.485 218.808ZM109.714 250.402L110.474 249.109L110.473 249.109L109.714 250.402ZM121.918 246.354L122.828 247.546L122.83 247.545L121.918 246.354ZM147.542 246.354L146.63 247.545L146.632 247.546L147.542 246.354ZM159.746 250.402L158.987 249.109L158.986 249.109L159.746 250.402ZM157.975 218.808L156.544 219.259L156.544 219.26L157.975 218.808ZM160.638 200.207L159.458 199.281L159.424 199.323L159.394 199.368L160.638 200.207ZM160.765 200.029L161.945 200.955L161.979 200.912L162.009 200.867L160.765 200.029ZM176.547 190.741V189.241H176.487L176.428 189.246L176.547 190.741ZM176.768 190.718L176.647 189.223L176.581 189.228L176.516 189.239L176.768 190.718ZM193.904 197.669L192.783 198.665L192.783 198.666L193.904 197.669ZM219.864 215.03L220.624 216.324L220.624 216.324L219.864 215.03ZM222.527 202.236L224.017 202.063L224.017 202.061L222.527 202.236ZM235.333 179.623L235.932 180.998L235.933 180.998L235.333 179.623ZM244.874 170.866L246.374 170.866V170.866H244.874ZM217.143 156.62L216.82 158.085L216.821 158.085L217.143 156.62ZM202.669 144.972L204.027 144.336L203.997 144.272L203.962 144.211L202.669 144.972ZM202.576 144.782L201.218 145.419L201.248 145.483L201.283 145.543L202.576 144.782ZM202.576 126.206L201.283 125.445L201.248 125.506L201.218 125.569L202.576 126.206ZM202.669 126.017L203.962 126.778L203.997 126.717L204.027 126.653L202.669 126.017ZM217.143 114.368L216.821 112.903L216.82 112.903L217.143 114.368ZM244.874 100.122H246.374V100.122L244.874 100.122ZM235.333 91.3652L235.934 89.9909L235.932 89.99L235.333 91.3652ZM222.527 68.752L221.038 68.5754L221.038 68.5767L222.527 68.752ZM219.864 55.958L220.624 54.6648L220.624 54.6645L219.864 55.958ZM193.904 73.3193L192.783 72.3232L192.782 72.3243L193.904 73.3193ZM176.768 80.2705L176.888 78.7753L176.828 78.7705H176.768V80.2705ZM176.547 80.2588L176.428 81.754L176.487 81.7588H176.547V80.2588ZM160.765 70.9707L162.008 70.1316L161.978 70.0871L161.945 70.0448L160.765 70.9707ZM160.638 70.793L159.394 71.6318L159.424 71.6766L159.458 71.719L160.638 70.793ZM157.975 52.1924L156.544 51.7405L156.544 51.7413L157.975 52.1924ZM224.543 0V1.5C245.806 1.50002 263.043 18.737 263.043 40H264.543H266.043C266.043 17.0802 247.463 -1.49998 224.543 -1.5V0ZM264.543 40H263.043V352H264.543H266.043V40H264.543ZM264.543 352H263.043C263.043 373.263 245.806 390.5 224.543 390.5V392V393.5C247.463 393.5 266.043 374.92 266.043 352H264.543ZM224.543 392V390.5H40V392V393.5H224.543V392ZM40 392V390.5C18.737 390.5 1.5 373.263 1.5 352H0H-1.5C-1.5 374.92 17.0802 393.5 40 393.5V392ZM0 352H1.5V40H0H-1.5V352H0ZM0 40H1.5C1.5 18.737 18.737 1.5 40 1.5V0V-1.5C17.0802 -1.5 -1.5 17.0802 -1.5 40H0ZM40 0V1.5H224.543V0V-1.5H40V0ZM159.746 20.5977L160.506 19.3043C158.653 18.2159 156.433 18.3208 154.168 19.0909C151.898 19.863 149.362 21.3718 146.632 23.4539L147.542 24.6465L148.452 25.8391C151.06 23.8494 153.3 22.5549 155.134 21.9311C156.975 21.3053 158.187 21.4217 158.986 21.891L159.746 20.5977ZM147.542 24.6465L146.63 23.4552C139.55 28.8737 129.91 28.8737 122.83 23.4552L121.918 24.6465L121.006 25.8377C129.163 32.0795 140.297 32.0796 148.454 25.8377L147.542 24.6465ZM121.918 24.6465L122.828 23.4539C120.098 21.3719 117.562 19.8631 115.292 19.0909C113.027 18.3208 110.807 18.2159 108.954 19.3043L109.714 20.5977L110.474 21.891C111.272 21.4217 112.485 21.3053 114.326 21.9312C116.16 22.5549 118.4 23.8494 121.008 25.8391L121.918 24.6465ZM109.714 20.5977L108.954 19.3042C107.338 20.2535 106.358 21.9098 105.823 23.8864C105.29 25.8598 105.155 28.3018 105.334 31.0959C105.692 36.6911 107.337 44.0412 110.055 52.6443L111.485 52.1924L112.916 51.7405C110.227 43.2303 108.664 36.1462 108.328 30.904C108.159 28.2794 108.305 26.2017 108.719 24.6695C109.133 23.1405 109.769 22.305 110.473 21.8912L109.714 20.5977ZM111.485 52.1924L110.055 52.6435C111.899 58.491 110.991 64.8965 107.579 69.9541L108.822 70.793L110.066 71.6318C113.995 65.8078 115.032 58.4512 112.916 51.7413L111.485 52.1924ZM108.822 70.793L107.642 69.8669C107.585 69.9395 107.539 70.0078 107.522 70.0321C107.498 70.0671 107.504 70.0582 107.514 70.0446L108.694 70.9707L109.874 71.8968C109.931 71.8242 109.978 71.7559 109.994 71.7316C110.018 71.6965 110.013 71.7055 110.002 71.7191L108.822 70.793ZM108.694 70.9707L107.45 70.1334C104.089 75.1289 98.7001 78.2928 92.7939 78.7635L92.9131 80.2588L93.0323 81.754C99.8623 81.2096 106.075 77.552 109.939 71.808L108.694 70.9707ZM92.9131 80.2588V78.7588C92.8759 78.7588 92.6595 78.7546 92.4412 78.7917L92.6924 80.2705L92.9436 81.7493C92.9139 81.7544 92.8916 81.7567 92.8797 81.7578C92.8733 81.7583 92.8684 81.7587 92.8654 81.7589C92.8624 81.759 92.8606 81.7591 92.8604 81.7591C92.8604 81.7591 92.864 81.759 92.8734 81.7589C92.8835 81.7588 92.8943 81.7588 92.9131 81.7588V80.2588ZM92.6924 80.2705L92.5722 78.7753C86.589 79.2561 80.712 76.8637 76.6769 72.3229L75.5557 73.3193L74.4344 74.3157C79.0833 79.5472 85.8739 82.3233 92.8125 81.7657L92.6924 80.2705ZM75.5557 73.3193L76.6767 72.3227C70.722 65.6241 65.2974 60.4968 60.7191 57.3796C58.433 55.823 56.2844 54.7165 54.3304 54.1971C52.3684 53.6755 50.4573 53.7126 48.8362 54.6645L49.5957 55.958L50.3552 57.2515C51.0557 56.8402 52.0697 56.7003 53.5597 57.0964C55.0576 57.4946 56.8879 58.4004 59.0307 59.8593C63.3103 62.7732 68.5441 67.6896 74.4346 74.3159L75.5557 73.3193ZM49.5957 55.958L48.8357 54.6648C46.9895 55.7498 45.9782 57.7461 45.5039 60.1131C45.0273 62.4917 45.0405 65.4768 45.4427 68.9257L46.9326 68.752L48.4225 68.5782C48.0374 65.2765 48.0565 62.6436 48.4454 60.7024C48.8367 58.7496 49.5506 57.7243 50.3557 57.2512L49.5957 55.958ZM46.9326 68.752L45.4429 68.9272C46.502 77.9283 41.6611 86.448 33.528 89.99L34.127 91.3652L34.7259 92.7405C44.0996 88.6581 49.6324 78.8603 48.4223 68.5767L46.9326 68.752ZM34.127 91.3652L33.529 89.9896C30.388 91.3548 27.8373 92.8398 26.0486 94.459C24.2629 96.0755 23.0861 97.9706 23.0859 100.122L24.5859 100.122L26.0859 100.122C26.086 99.146 26.6113 97.9963 28.062 96.6831C29.5096 95.3726 31.7293 94.0429 34.7249 92.7409L34.127 91.3652ZM24.5859 100.122H23.0859C23.0859 102.003 23.9946 103.694 25.4141 105.163C26.8281 106.626 28.8402 107.971 31.3074 109.213C36.2469 111.7 43.32 113.928 51.9957 115.833L52.3174 114.368L52.6391 112.903C44.0622 111.02 37.2695 108.857 32.6565 106.534C30.3474 105.371 28.6615 104.206 27.5716 103.078C26.4871 101.956 26.0859 100.973 26.0859 100.122H24.5859ZM52.3174 114.368L51.9952 115.833C57.8674 117.124 62.8373 121.11 65.4325 126.653L66.791 126.017L68.1495 125.381C65.1638 119.003 59.4344 114.397 52.6395 112.903L52.3174 114.368ZM66.791 126.017L65.4983 126.777C65.478 126.743 65.4656 126.717 65.4621 126.71C65.4593 126.704 65.4582 126.701 65.4669 126.721C65.4727 126.734 65.4883 126.769 65.5063 126.807C65.5251 126.846 65.5534 126.903 65.5911 126.967L66.8838 126.206L68.1765 125.445C68.1968 125.48 68.2092 125.505 68.2127 125.513C68.2155 125.519 68.2166 125.521 68.2079 125.502C68.2021 125.489 68.1865 125.453 68.1685 125.416C68.1497 125.376 68.1214 125.32 68.0837 125.256L66.791 126.017ZM66.8838 126.206L65.5256 126.843C68.092 132.317 68.092 138.672 65.5256 144.145L66.8838 144.782L68.2419 145.419C71.1866 139.138 71.1865 131.85 68.2419 125.569L66.8838 126.206ZM66.8838 144.782L65.5911 144.021C65.5535 144.085 65.5251 144.142 65.5063 144.181C65.4883 144.219 65.4727 144.254 65.4669 144.267C65.4582 144.287 65.4593 144.284 65.4621 144.278C65.4656 144.271 65.478 144.245 65.4983 144.211L66.791 144.972L68.0837 145.733C68.1214 145.669 68.1497 145.612 68.1685 145.573C68.1865 145.535 68.2021 145.5 68.2079 145.487C68.2166 145.467 68.2155 145.47 68.2127 145.476C68.2091 145.483 68.1968 145.509 68.1764 145.543L66.8838 144.782ZM66.791 144.972L65.4325 144.336C62.8377 149.878 57.8565 153.864 51.9947 155.155L52.3174 156.62L52.6401 158.085C59.4221 156.591 65.1634 151.986 68.1495 145.608L66.791 144.972ZM52.3174 156.62L51.9957 155.155C43.32 157.06 36.2469 159.288 31.3074 161.775C28.8402 163.017 26.8281 164.362 25.4141 165.825C23.9946 167.295 23.0859 168.985 23.0859 170.866H24.5859H26.0859C26.0859 170.015 26.4871 169.032 27.5716 167.91C28.6615 166.782 30.3474 165.617 32.6565 164.454C37.2695 162.132 44.0622 159.969 52.6391 158.085L52.3174 156.62ZM24.5859 170.866L23.0859 170.866C23.0861 173.015 24.269 174.907 26.0535 176.521C27.8424 178.139 30.3916 179.626 33.5258 180.997L34.127 179.623L34.7281 178.249C31.7373 176.941 29.5161 175.608 28.0658 174.296C26.6111 172.98 26.086 171.833 26.0859 170.866L24.5859 170.866ZM34.127 179.623L33.528 180.998C41.6612 184.54 46.502 193.06 45.4429 202.061L46.9326 202.236L48.4223 202.412C49.6324 192.128 44.0996 182.33 34.7259 178.248L34.127 179.623ZM46.9326 202.236L45.443 202.06C45.0346 205.505 45.0214 208.491 45.4997 210.872C45.9755 213.24 46.9899 215.239 48.8357 216.324L49.5957 215.03L50.3557 213.737C49.5502 213.264 48.8335 212.235 48.4409 210.281C48.0508 208.339 48.0317 205.707 48.4222 202.413L46.9326 202.236ZM49.5957 215.03L48.8362 216.324C50.4568 217.275 52.3675 217.314 54.3297 216.793C56.2838 216.275 58.4325 215.169 60.7188 213.613C65.2975 210.497 70.7222 205.37 76.6772 198.665L75.5557 197.669L74.4342 196.673C68.5439 203.305 63.3102 208.221 59.031 211.133C56.8884 212.591 55.0582 213.496 53.5604 213.893C52.0706 214.289 51.0562 214.148 50.3552 213.737L49.5957 215.03ZM75.5557 197.669L76.6781 198.664C80.7115 194.114 86.5986 191.732 92.572 192.213L92.6924 190.718L92.8128 189.223C85.8875 188.665 79.0839 191.428 74.4332 196.674L75.5557 197.669ZM92.6924 190.718V192.218C92.6689 192.218 92.652 192.217 92.6434 192.216C92.6388 192.216 92.6354 192.216 92.6333 192.215C92.6312 192.215 92.6301 192.215 92.63 192.215C92.6299 192.215 92.6306 192.215 92.6322 192.215C92.6337 192.216 92.6358 192.216 92.6387 192.216C92.6445 192.217 92.652 192.218 92.6617 192.22L92.9131 190.741L93.1645 189.262C93.0852 189.249 92.8972 189.218 92.6924 189.218V190.718ZM92.9131 190.741L92.7939 192.236C98.6987 192.707 104.078 195.87 107.451 200.868L108.694 200.029L109.938 199.19C106.063 193.449 99.8637 189.79 93.0323 189.246L92.9131 190.741ZM108.694 200.029L107.514 200.955C107.504 200.942 107.498 200.933 107.522 200.968C107.539 200.992 107.585 201.06 107.642 201.133L108.822 200.207L110.002 199.281C110.013 199.295 110.019 199.303 109.994 199.268C109.978 199.244 109.931 199.176 109.874 199.103L108.694 200.029ZM108.822 200.207L107.579 201.046C110.991 206.104 111.899 212.509 110.055 218.357L111.485 218.808L112.916 219.259C115.032 212.549 113.995 205.192 110.066 199.368L108.822 200.207ZM111.485 218.808L110.055 218.356C107.337 226.959 105.692 234.309 105.334 239.904C105.155 242.698 105.29 245.14 105.823 247.114C106.358 249.09 107.338 250.747 108.954 251.696L109.714 250.402L110.473 249.109C109.769 248.695 109.133 247.86 108.719 246.33C108.305 244.798 108.159 242.721 108.328 240.096C108.664 234.854 110.227 227.77 112.916 219.26L111.485 218.808ZM109.714 250.402L108.954 251.696C110.807 252.784 113.027 252.679 115.292 251.909C117.562 251.137 120.098 249.628 122.828 247.546L121.918 246.354L121.008 245.161C118.4 247.151 116.16 248.445 114.326 249.069C112.485 249.695 111.272 249.578 110.474 249.109L109.714 250.402ZM121.918 246.354L122.83 247.545C129.91 242.126 139.55 242.126 146.63 247.545L147.542 246.354L148.454 245.162C140.297 238.92 129.163 238.92 121.006 245.162L121.918 246.354ZM147.542 246.354L146.632 247.546C149.362 249.628 151.898 251.137 154.168 251.909C156.433 252.679 158.653 252.784 160.506 251.696L159.746 250.402L158.986 249.109C158.187 249.578 156.975 249.695 155.134 249.069C153.3 248.445 151.06 247.151 148.452 245.161L147.542 246.354ZM159.746 250.402L160.506 251.696C162.122 250.747 163.102 249.09 163.636 247.114C164.17 245.14 164.305 242.698 164.126 239.904C163.768 234.309 162.123 226.959 159.405 218.356L157.975 218.808L156.544 219.26C159.233 227.77 160.796 234.854 161.132 240.096C161.301 242.721 161.155 244.798 160.741 246.33C160.327 247.86 159.691 248.695 158.987 249.109L159.746 250.402ZM157.975 218.808L159.405 218.357C157.561 212.509 158.469 206.104 161.881 201.046L160.638 200.207L159.394 199.368C155.465 205.192 154.428 212.549 156.544 219.259L157.975 218.808ZM160.638 200.207L161.818 201.133C161.878 201.057 161.926 200.985 161.942 200.961C161.966 200.926 161.958 200.938 161.945 200.955L160.765 200.029L159.585 199.103C159.525 199.18 159.477 199.251 159.46 199.275C159.436 199.311 159.444 199.298 159.458 199.281L160.638 200.207ZM160.765 200.029L162.009 200.867C165.37 195.871 170.76 192.707 176.666 192.236L176.547 190.741L176.428 189.246C169.598 189.79 163.384 193.448 159.52 199.192L160.765 200.029ZM176.547 190.741V192.241C176.752 192.241 176.94 192.21 177.019 192.197L176.768 190.718L176.516 189.239C176.506 189.241 176.499 189.242 176.493 189.243C176.49 189.243 176.488 189.243 176.487 189.244C176.485 189.244 176.484 189.244 176.484 189.244C176.485 189.244 176.486 189.244 176.488 189.244C176.49 189.243 176.493 189.243 176.498 189.243C176.506 189.242 176.523 189.241 176.547 189.241V190.741ZM176.768 190.718L176.888 192.213C182.871 191.732 188.748 194.125 192.783 198.665L193.904 197.669L195.026 196.673C190.377 191.441 183.586 188.665 176.647 189.223L176.768 190.718ZM193.904 197.669L192.783 198.666C198.738 205.364 204.163 210.491 208.741 213.609C211.027 215.165 213.176 216.272 215.13 216.791C217.092 217.313 219.003 217.276 220.624 216.324L219.864 215.03L219.105 213.737C218.404 214.148 217.39 214.288 215.9 213.892C214.402 213.494 212.572 212.588 210.429 211.129C206.15 208.215 200.916 203.299 195.025 196.672L193.904 197.669ZM219.864 215.03L220.624 216.324C222.47 215.239 223.482 213.242 223.956 210.875C224.433 208.497 224.419 205.512 224.017 202.063L222.527 202.236L221.037 202.41C221.423 205.712 221.403 208.345 221.015 210.286C220.623 212.239 219.909 213.264 219.104 213.737L219.864 215.03ZM222.527 202.236L224.017 202.061C222.958 193.06 227.799 184.54 235.932 180.998L235.333 179.623L234.734 178.248C225.36 182.33 219.828 192.128 221.038 202.412L222.527 202.236ZM235.333 179.623L235.933 180.998C239.074 179.627 241.623 178.139 243.411 176.52C245.195 174.905 246.374 173.013 246.374 170.866L244.874 170.866L243.374 170.866C243.374 171.835 242.85 172.982 241.398 174.296C239.95 175.608 237.729 176.94 234.733 178.248L235.333 179.623ZM244.874 170.866H246.374C246.374 168.985 245.465 167.295 244.046 165.825C242.632 164.362 240.62 163.017 238.153 161.775C233.213 159.288 226.14 157.06 217.464 155.155L217.143 156.62L216.821 158.085C225.398 159.969 232.19 162.132 236.803 164.454C239.113 165.617 240.798 166.782 241.888 167.91C242.973 169.032 243.374 170.015 243.374 170.866H244.874ZM217.143 156.62L217.465 155.155C211.593 153.864 206.623 149.879 204.027 144.336L202.669 144.972L201.31 145.608C204.296 151.985 210.026 156.591 216.82 158.085L217.143 156.62ZM202.669 144.972L203.962 144.211C203.982 144.245 203.994 144.271 203.998 144.278C204.001 144.284 204.002 144.287 203.993 144.267C203.987 144.254 203.972 144.219 203.954 144.181C203.935 144.142 203.907 144.085 203.869 144.021L202.576 144.782L201.283 145.543C201.263 145.509 201.251 145.483 201.247 145.476C201.244 145.47 201.243 145.467 201.252 145.487C201.258 145.5 201.273 145.535 201.291 145.573C201.31 145.612 201.339 145.669 201.376 145.733L202.669 144.972ZM202.576 144.782L203.934 144.145C201.368 138.672 201.368 132.317 203.934 126.843L202.576 126.206L201.218 125.569C198.273 131.85 198.273 139.138 201.218 145.419L202.576 144.782ZM202.576 126.206L203.869 126.967C203.907 126.903 203.935 126.846 203.954 126.807C203.972 126.769 203.987 126.734 203.993 126.721C204.002 126.702 204.001 126.704 203.998 126.71C203.994 126.718 203.982 126.743 203.962 126.778L202.669 126.017L201.376 125.256C201.339 125.32 201.31 125.376 201.291 125.416C201.273 125.453 201.258 125.489 201.252 125.502C201.243 125.521 201.244 125.519 201.247 125.513C201.251 125.505 201.263 125.48 201.283 125.445L202.576 126.206ZM202.669 126.017L204.027 126.653C206.622 121.11 211.603 117.124 217.465 115.833L217.143 114.368L216.82 112.903C210.038 114.397 204.297 119.003 201.31 125.381L202.669 126.017ZM217.143 114.368L217.464 115.833C226.14 113.928 233.213 111.7 238.153 109.213C240.62 107.971 242.632 106.626 244.046 105.163C245.465 103.694 246.374 102.003 246.374 100.122H244.874H243.374C243.374 100.973 242.973 101.956 241.888 103.078C240.798 104.206 239.113 105.371 236.803 106.534C232.19 108.857 225.398 111.02 216.821 112.903L217.143 114.368ZM244.874 100.122L246.374 100.122C246.374 97.9735 245.191 96.0814 243.407 94.4674C241.618 92.8494 239.068 91.3619 235.934 89.9909L235.333 91.3652L234.732 92.7395C237.723 94.0477 239.944 95.3806 241.394 96.6924C242.849 98.0081 243.374 99.1549 243.374 100.122L244.874 100.122ZM235.333 91.3652L235.932 89.99C227.799 86.448 222.958 77.9283 224.017 68.9272L222.527 68.752L221.038 68.5767C219.828 78.8603 225.36 88.6581 234.734 92.7405L235.333 91.3652ZM222.527 68.752L224.017 68.9285C224.425 65.4835 224.439 62.4976 223.96 60.1167C223.484 57.7483 222.47 55.7495 220.624 54.6648L219.864 55.958L219.104 57.2512C219.91 57.7246 220.626 58.7534 221.019 60.7076C221.409 62.6495 221.428 65.2815 221.038 68.5754L222.527 68.752ZM219.864 55.958L220.624 54.6645C219.003 53.7129 217.092 53.6747 215.13 54.1952C213.176 54.7137 211.027 55.819 208.741 57.375C204.162 60.4909 198.738 65.6185 192.783 72.3232L193.904 73.3193L195.026 74.3154C200.916 67.6835 206.15 62.7673 210.429 59.8551C212.572 58.397 214.402 57.4923 215.9 57.0949C217.389 56.6997 218.404 56.8399 219.105 57.2515L219.864 55.958ZM193.904 73.3193L192.782 72.3243C188.748 76.874 182.861 79.2562 176.888 78.7753L176.768 80.2705L176.647 81.7657C183.572 82.3232 190.376 79.5604 195.027 74.3144L193.904 73.3193ZM176.768 80.2705V78.7705C176.79 78.7705 176.804 78.7714 176.802 78.7713C176.8 78.7711 176.794 78.7708 176.773 78.7691C176.757 78.7679 176.724 78.7653 176.69 78.7633C176.655 78.7612 176.604 78.7588 176.547 78.7588V80.2588V81.7588C176.524 81.7588 176.51 81.7579 176.512 81.758C176.515 81.7581 176.52 81.7585 176.541 81.7602C176.558 81.7614 176.59 81.764 176.625 81.766C176.66 81.7681 176.71 81.7705 176.768 81.7705V80.2705ZM176.547 80.2588L176.666 78.7635C170.761 78.2929 165.381 75.1301 162.008 70.1316L160.765 70.9707L159.521 71.8098C163.396 77.5513 169.596 81.2095 176.428 81.754L176.547 80.2588ZM160.765 70.9707L161.945 70.0448C161.958 70.0621 161.966 70.0744 161.942 70.0389C161.926 70.015 161.878 69.9433 161.818 69.8669L160.638 70.793L159.458 71.719C159.444 71.7017 159.436 71.6893 159.46 71.7247C159.477 71.7487 159.525 71.8204 159.585 71.8966L160.765 70.9707ZM160.638 70.793L161.881 69.9541C158.469 64.8964 157.561 58.491 159.405 52.6435L157.975 52.1924L156.544 51.7413C154.428 58.4512 155.465 65.8078 159.394 71.6318L160.638 70.793ZM157.975 52.1924L159.405 52.6443C162.123 44.0413 163.767 36.6941 164.126 31.1003C164.305 28.3069 164.17 25.8654 163.637 23.8915C163.102 21.9143 162.123 20.2579 160.508 19.3056L159.746 20.5977L158.984 21.8897C159.691 22.3065 160.327 23.1448 160.74 24.6744C161.155 26.2072 161.301 28.2846 161.132 30.9084C160.796 36.1491 159.233 43.2302 156.544 51.7405L157.975 52.1924Z" fill="#05042E" mask="url(#path-1-inside-1_2541_45703)"/>
</svg>
