<svg width="265" height="392" viewBox="0 0 265 392" fill="none" xmlns="http://www.w3.org/2000/svg">
<mask id="path-1-inside-1_2541_45717" fill="white">
<path d="M224.543 0C246.634 0 264.543 17.9086 264.543 40V352C264.543 374.091 246.634 392 224.543 392H40C17.9086 392 0 374.091 0 352V40C2.06164e-06 17.9086 17.9086 0 40 0H224.543ZM188.647 57.1318C162.352 24.3233 127.202 7.05976 110.139 18.5645C100.765 24.8842 98.8103 38.5829 103.297 55.0791C95.1362 56.2782 86.6219 58.1581 77.9902 60.7832C35.8445 73.5848 7.08786 98.9176 13.7412 117.369C17.4035 127.502 30.9927 133.444 49.4805 134.621C48.1969 142.108 47.5144 150.124 47.5732 158.464C47.8206 199.191 65.202 232.108 86.3867 232C98.021 231.935 108.372 221.91 115.319 206.148C122.679 209.584 130.781 212.652 139.448 215.19C181.747 227.56 221.243 222.569 227.673 204.053C231.206 193.887 224.01 181.744 209.809 170.822L209.797 170.812C215.626 165.442 221.314 159.328 226.625 152.555C252.508 119.476 259.55 83.4691 242.346 72.1367C232.89 65.9143 218.088 68.4426 202.379 77.4521C198.622 70.7003 194.041 63.8513 188.647 57.1318Z"/>
</mask>
<path d="M224.543 0C246.634 0 264.543 17.9086 264.543 40V352C264.543 374.091 246.634 392 224.543 392H40C17.9086 392 0 374.091 0 352V40C2.06164e-06 17.9086 17.9086 0 40 0H224.543ZM188.647 57.1318C162.352 24.3233 127.202 7.05976 110.139 18.5645C100.765 24.8842 98.8103 38.5829 103.297 55.0791C95.1362 56.2782 86.6219 58.1581 77.9902 60.7832C35.8445 73.5848 7.08786 98.9176 13.7412 117.369C17.4035 127.502 30.9927 133.444 49.4805 134.621C48.1969 142.108 47.5144 150.124 47.5732 158.464C47.8206 199.191 65.202 232.108 86.3867 232C98.021 231.935 108.372 221.91 115.319 206.148C122.679 209.584 130.781 212.652 139.448 215.19C181.747 227.56 221.243 222.569 227.673 204.053C231.206 193.887 224.01 181.744 209.809 170.822L209.797 170.812C215.626 165.442 221.314 159.328 226.625 152.555C252.508 119.476 259.55 83.4691 242.346 72.1367C232.89 65.9143 218.088 68.4426 202.379 77.4521C198.622 70.7003 194.041 63.8513 188.647 57.1318Z" fill="#F197BD"/>
<path d="M0 40H-1.5H0ZM188.647 57.1318L187.477 58.0699L187.478 58.0708L188.647 57.1318ZM110.139 18.5645L110.977 19.8082L110.977 19.8082L110.139 18.5645ZM103.297 55.0791L103.515 56.5632L105.188 56.3173L104.744 54.6854L103.297 55.0791ZM77.9902 60.7832L78.4262 62.2185L78.4267 62.2183L77.9902 60.7832ZM13.7412 117.369L12.3301 117.878L12.3305 117.879L13.7412 117.369ZM49.4805 134.621L50.9589 134.875L51.2408 133.23L49.5758 133.124L49.4805 134.621ZM47.5732 158.464L49.0732 158.455L49.0732 158.453L47.5732 158.464ZM86.3867 232L86.3944 233.5L86.3951 233.5L86.3867 232ZM115.319 206.148L115.954 204.789L114.565 204.141L113.947 205.543L115.319 206.148ZM139.448 215.19L139.027 216.63L139.027 216.63L139.448 215.19ZM227.673 204.053L226.256 203.56L226.256 203.561L227.673 204.053ZM209.809 170.822L208.795 171.928L208.843 171.972L208.894 172.011L209.809 170.822ZM209.797 170.812L208.781 169.708L207.58 170.814L208.783 171.917L209.797 170.812ZM226.625 152.555L227.805 153.48L227.806 153.479L226.625 152.555ZM242.346 72.1367L243.171 70.884L243.17 70.8837L242.346 72.1367ZM202.379 77.4521L201.068 78.1814L201.807 79.5094L203.125 78.7533L202.379 77.4521ZM224.543 0V1.5C245.806 1.5 263.043 18.737 263.043 40H264.543H266.043C266.043 17.0802 247.463 -1.5 224.543 -1.5V0ZM264.543 40H263.043V352H264.543H266.043V40H264.543ZM264.543 352H263.043C263.043 373.263 245.806 390.5 224.543 390.5V392V393.5C247.463 393.5 266.043 374.92 266.043 352H264.543ZM224.543 392V390.5H40V392V393.5H224.543V392ZM40 392V390.5C18.737 390.5 1.5 373.263 1.5 352H0H-1.5C-1.5 374.92 17.0802 393.5 40 393.5V392ZM0 352H1.5V40H0H-1.5V352H0ZM0 40H1.5C1.5 18.737 18.737 1.5 40 1.5V0V-1.5C17.0802 -1.5 -1.5 17.0802 -1.5 40H0ZM40 0V1.5H224.543V0V-1.5H40V0ZM188.647 57.1318L189.818 56.1937C176.558 39.6495 161.031 26.9768 146.592 19.8844C132.259 12.8434 118.53 11.0979 109.3 17.3207L110.139 18.5645L110.977 19.8082C118.811 14.5263 131.189 15.6603 145.27 22.577C159.246 29.4423 174.442 41.8057 187.477 58.0699L188.647 57.1318ZM110.139 18.5645L109.3 17.3207C99.0709 24.2174 97.3265 38.8428 101.849 55.4728L103.297 55.0791L104.744 54.6854C100.294 38.323 102.459 25.551 110.977 19.8082L110.139 18.5645ZM103.297 55.0791L103.079 53.595C94.8442 54.805 86.2569 56.7012 77.5538 59.3481L77.9902 60.7832L78.4267 62.2183C86.9869 59.6149 95.4282 57.7514 103.515 56.5632L103.297 55.0791ZM77.9902 60.7832L77.5543 59.3479C56.3299 65.7948 38.3986 75.4173 26.5746 85.8318C14.8692 96.1418 8.66346 107.709 12.3301 117.878L13.7412 117.369L15.1523 116.86C12.1656 108.577 17.0115 98.2527 28.5575 88.0831C39.985 78.0178 57.5048 68.5732 78.4262 62.2185L77.9902 60.7832ZM13.7412 117.369L12.3305 117.879C14.341 123.442 19.0254 127.708 25.4131 130.711C31.8023 133.715 40.0215 135.522 49.3851 136.118L49.4805 134.621L49.5758 133.124C40.4517 132.543 32.6324 130.79 26.6895 127.996C20.7451 125.201 16.8038 121.43 15.1519 116.859L13.7412 117.369ZM49.4805 134.621L48.002 134.368C46.7034 141.942 46.0138 150.047 46.0733 158.474L47.5732 158.464L49.0732 158.453C49.0149 150.201 49.6904 142.273 50.9589 134.875L49.4805 134.621ZM47.5732 158.464L46.0733 158.473C46.1981 179.028 50.6439 197.685 57.802 211.245C64.9213 224.732 74.9597 233.558 86.3944 233.5L86.3867 232L86.3791 230.5C76.629 230.55 67.3844 222.972 60.455 209.845C53.5644 196.792 49.1957 178.627 49.0732 158.455L47.5732 158.464ZM86.3867 232L86.3951 233.5C98.9526 233.43 109.677 222.667 116.692 206.753L115.319 206.148L113.947 205.543C107.066 221.153 97.0894 230.44 86.3783 230.5L86.3867 232ZM115.319 206.148L114.685 207.508C122.116 210.976 130.289 214.071 139.027 216.63L139.448 215.19L139.87 213.751C131.273 211.233 123.242 208.191 115.954 204.789L115.319 206.148ZM139.448 215.19L139.027 216.63C160.331 222.86 180.99 224.739 197.199 222.692C205.302 221.669 212.36 219.656 217.843 216.66C223.329 213.662 227.325 209.627 229.09 204.545L227.673 204.053L226.256 203.561C224.806 207.736 221.454 211.268 216.404 214.028C211.351 216.789 204.685 218.723 196.823 219.715C181.103 221.701 160.864 219.89 139.869 213.751L139.448 215.19ZM227.673 204.053L229.09 204.545C231.036 198.945 229.975 192.918 226.704 186.996C223.44 181.085 217.924 175.171 210.723 169.633L209.809 170.822L208.894 172.011C215.895 177.395 221.078 183.013 224.078 188.446C227.072 193.868 227.842 198.995 226.256 203.56L227.673 204.053ZM209.809 170.822L210.822 169.717L210.81 169.706L209.797 170.812L208.783 171.917L208.795 171.928L209.809 170.822ZM209.797 170.812L210.813 171.915C216.701 166.491 222.444 160.317 227.805 153.48L226.625 152.555L225.445 151.629C220.184 158.339 214.55 164.394 208.781 169.708L209.797 170.812ZM226.625 152.555L227.806 153.479C240.856 136.802 249.214 119.317 252.115 104.479C254.998 89.7369 252.557 77.0663 243.171 70.884L242.346 72.1367L241.521 73.3894C249.339 78.5395 251.98 89.5385 249.171 103.903C246.382 118.17 238.277 135.229 225.444 151.63L226.625 152.555ZM242.346 72.1367L243.17 70.8837C238.047 67.5126 231.582 66.5826 224.494 67.5976C217.408 68.6124 209.599 71.582 201.633 76.151L202.379 77.4521L203.125 78.7533C210.868 74.3127 218.314 71.5134 224.92 70.5673C231.525 69.6213 237.188 70.5383 241.521 73.3898L242.346 72.1367ZM202.379 77.4521L203.69 76.7229C199.891 69.8955 195.262 62.9765 189.817 56.1929L188.647 57.1318L187.478 58.0708C192.819 64.7261 197.354 71.5051 201.068 78.1814L202.379 77.4521Z" fill="#05042E" mask="url(#path-1-inside-1_2541_45717)"/>
</svg>
