<svg width="265" height="392" viewBox="0 0 265 392" fill="none" xmlns="http://www.w3.org/2000/svg">
<mask id="path-1-inside-1_2541_45702" fill="white">
<path d="M224.543 0C246.634 0 264.543 17.9086 264.543 40V352C264.543 374.091 246.634 392 224.543 392H40C17.9086 392 0 374.091 0 352V40C2.06164e-06 17.9086 17.9086 0 40 0H224.543ZM191.811 20.0312C169.681 19.3137 150.193 30.9849 139.54 48.7266C136.236 54.2324 128.307 54.2325 125.003 48.7266C114.349 30.9848 94.8624 19.3136 72.7324 20.0312C41.9084 21.0316 16.7763 46.5147 15.7676 77.7979C15.0953 98.669 24.9718 117.223 40.3896 128.436C45.1655 131.906 45.1657 139.095 40.3896 142.565C24.9719 153.766 15.0952 172.331 15.7676 193.202C16.7762 224.485 41.9083 249.968 72.7324 250.969C94.8624 251.686 114.349 240.015 125.003 222.273C128.307 216.768 136.236 216.768 139.54 222.273C150.193 240.015 169.681 251.686 191.811 250.969C222.635 249.969 247.768 224.485 248.776 193.202C249.449 172.331 239.571 153.778 224.153 142.565C219.378 139.095 219.378 131.906 224.153 128.436C239.571 117.235 249.449 98.6691 248.776 77.7979C247.768 46.5146 222.635 21.0313 191.811 20.0312Z"/>
</mask>
<path d="M224.543 0C246.634 0 264.543 17.9086 264.543 40V352C264.543 374.091 246.634 392 224.543 392H40C17.9086 392 0 374.091 0 352V40C2.06164e-06 17.9086 17.9086 0 40 0H224.543ZM191.811 20.0312C169.681 19.3137 150.193 30.9849 139.54 48.7266C136.236 54.2324 128.307 54.2325 125.003 48.7266C114.349 30.9848 94.8624 19.3136 72.7324 20.0312C41.9084 21.0316 16.7763 46.5147 15.7676 77.7979C15.0953 98.669 24.9718 117.223 40.3896 128.436C45.1655 131.906 45.1657 139.095 40.3896 142.565C24.9719 153.766 15.0952 172.331 15.7676 193.202C16.7762 224.485 41.9083 249.968 72.7324 250.969C94.8624 251.686 114.349 240.015 125.003 222.273C128.307 216.768 136.236 216.768 139.54 222.273C150.193 240.015 169.681 251.686 191.811 250.969C222.635 249.969 247.768 224.485 248.776 193.202C249.449 172.331 239.571 153.778 224.153 142.565C219.378 139.095 219.378 131.906 224.153 128.436C239.571 117.235 249.449 98.6691 248.776 77.7979C247.768 46.5146 222.635 21.0313 191.811 20.0312Z" fill="#C285FF"/>
<path d="M0 40H-1.5H0ZM191.811 20.0312L191.859 18.532L191.859 18.532L191.811 20.0312ZM139.54 48.7266L138.254 47.9544L138.254 47.9547L139.54 48.7266ZM125.003 48.7266L126.289 47.9548L126.289 47.9544L125.003 48.7266ZM72.7324 20.0312L72.6838 18.532L72.6838 18.532L72.7324 20.0312ZM15.7676 77.7979L14.2684 77.7495L14.2684 77.7496L15.7676 77.7979ZM40.3896 128.436L39.5074 129.649L39.5078 129.649L40.3896 128.436ZM40.3896 142.565L41.2713 143.779L41.2714 143.779L40.3896 142.565ZM15.7676 193.202L14.2684 193.25L14.2684 193.25L15.7676 193.202ZM72.7324 250.969L72.6838 252.468H72.6838L72.7324 250.969ZM125.003 222.273L126.289 223.046L126.289 223.045L125.003 222.273ZM139.54 222.273L138.254 223.045L138.254 223.046L139.54 222.273ZM191.811 250.969L191.859 252.468H191.859L191.811 250.969ZM248.776 193.202L250.276 193.25V193.25L248.776 193.202ZM224.153 142.565L225.036 141.352L225.035 141.352L224.153 142.565ZM224.153 128.436L223.272 127.222L223.271 127.222L224.153 128.436ZM248.776 77.7979L250.276 77.7496V77.7495L248.776 77.7979ZM224.543 0V1.5C245.806 1.5 263.043 18.737 263.043 40H264.543H266.043C266.043 17.0802 247.463 -1.5 224.543 -1.5V0ZM264.543 40H263.043V352H264.543H266.043V40H264.543ZM264.543 352H263.043C263.043 373.263 245.806 390.5 224.543 390.5V392V393.5C247.463 393.5 266.043 374.92 266.043 352H264.543ZM224.543 392V390.5H40V392V393.5H224.543V392ZM40 392V390.5C18.737 390.5 1.5 373.263 1.5 352H0H-1.5C-1.5 374.92 17.0802 393.5 40 393.5V392ZM0 352H1.5V40H0H-1.5V352H0ZM0 40H1.5C1.5 18.737 18.737 1.5 40 1.5V0V-1.5C17.0802 -1.5 -1.5 17.0802 -1.5 40H0ZM40 0V1.5H224.543V0V-1.5H40V0ZM191.811 20.0312L191.859 18.532C169.154 17.7959 149.171 29.7736 138.254 47.9544L139.54 48.7266L140.826 49.4988C151.216 32.1961 170.207 20.8316 191.762 21.5305L191.811 20.0312ZM139.54 48.7266L138.254 47.9547C135.532 52.4897 129.01 52.4897 126.289 47.9548L125.003 48.7266L123.717 49.4983C127.603 55.9753 136.94 55.975 140.826 49.4984L139.54 48.7266ZM125.003 48.7266L126.289 47.9544C115.372 29.7736 95.3888 17.7957 72.6838 18.532L72.7324 20.0312L72.781 21.5305C94.336 20.8314 113.327 32.1961 123.717 49.4988L125.003 48.7266ZM72.7324 20.0312L72.6838 18.532C41.0506 19.5586 15.3019 45.6949 14.2684 77.7495L15.7676 77.7979L17.2668 77.8462C18.2506 47.3346 42.7661 22.5045 72.7811 21.5305L72.7324 20.0312ZM15.7676 77.7979L14.2684 77.7496C13.5795 99.1345 23.7016 118.154 39.5074 129.649L40.3896 128.436L41.2719 127.222C26.2419 116.292 16.611 98.2035 17.2668 77.8461L15.7676 77.7979ZM40.3896 128.436L39.5078 129.649C43.4595 132.521 43.4595 138.48 39.5079 141.352L40.3896 142.565L41.2714 143.779C46.8718 139.709 46.8715 131.292 41.2715 127.222L40.3896 128.436ZM40.3896 142.565L39.508 141.352C23.7014 152.835 13.5795 171.866 14.2684 193.25L15.7676 193.202L17.2668 193.154C16.611 172.796 26.2423 154.697 41.2713 143.779L40.3896 142.565ZM15.7676 193.202L14.2684 193.25C15.3019 225.305 41.0506 251.441 72.6838 252.468L72.7324 250.969L72.7811 249.47C42.7661 248.495 18.2505 223.665 17.2668 193.154L15.7676 193.202ZM72.7324 250.969L72.6838 252.468C95.3887 253.204 115.372 241.226 126.289 223.046L125.003 222.273L123.717 221.501C113.327 238.804 94.336 250.169 72.781 249.47L72.7324 250.969ZM125.003 222.273L126.289 223.045C129.01 218.51 135.533 218.51 138.254 223.045L139.54 222.273L140.826 221.502C136.94 215.025 127.603 215.025 123.717 221.502L125.003 222.273ZM139.54 222.273L138.254 223.046C149.171 241.226 169.154 253.204 191.859 252.468L191.811 250.969L191.762 249.47C170.207 250.168 151.216 238.804 140.826 221.501L139.54 222.273ZM191.811 250.969L191.859 252.468C223.493 251.442 249.242 225.305 250.276 193.25L248.776 193.202L247.277 193.154C246.293 223.666 221.777 248.496 191.762 249.47L191.811 250.969ZM248.776 193.202L250.276 193.25C250.965 171.865 240.841 152.847 225.036 141.352L224.153 142.565L223.271 143.779C238.301 154.709 247.933 172.796 247.277 193.154L248.776 193.202ZM224.153 142.565L225.035 141.352C221.084 138.48 221.084 132.521 225.035 129.649L224.153 128.436L223.271 127.222C217.672 131.292 217.671 139.709 223.271 143.779L224.153 142.565ZM224.153 128.436L225.035 129.649C240.842 118.166 250.964 99.1342 250.276 77.7496L248.776 77.7979L247.277 77.8461C247.933 98.204 238.301 116.304 223.272 127.222L224.153 128.436ZM248.776 77.7979L250.276 77.7495C249.242 45.6947 223.493 19.5584 191.859 18.532L191.811 20.0312L191.762 21.5305C221.777 22.5043 246.293 47.3344 247.277 77.8462L248.776 77.7979Z" fill="black" mask="url(#path-1-inside-1_2541_45702)"/>
</svg>
