<svg width="142" height="34" viewBox="0 0 142 34" fill="none" xmlns="http://www.w3.org/2000/svg">
<path d="M125.095 0C134.431 0 142 7.61116 142 17C142 26.3888 134.431 34 125.095 34H57.4762C51.8994 34 46.9533 31.2843 43.8742 27.0962C42.3281 25.0908 39.9092 23.8 37.1905 23.8C34.4718 23.8 32.0529 25.0908 30.5067 27.0962C27.4277 31.2843 22.4816 34 16.9048 34C7.56851 34 0 26.3888 0 17C0 7.61116 7.56851 0 16.9048 0C22.4816 0 27.4277 2.71572 30.5068 6.90385C32.0529 8.90925 34.4718 10.2 37.1905 10.2C39.9092 10.2 42.3281 8.90923 43.8742 6.90381C46.9533 2.7157 51.8994 0 57.4762 0H125.095Z" fill="#C1C1D4"/>
</svg>
